<?xml version="1.0" standalone="no"?>
<!DOCTYPE svg PUBLIC "-//W3C//DTD SVG 1.1//EN" "http://www.w3.org/Graphics/SVG/1.1/DTD/svg11.dtd" >
<svg xmlns="http://www.w3.org/2000/svg">
<metadata>Generated by IcoMoon</metadata>
<defs>
<font id="icomoon" horiz-adv-x="1024">
<font-face units-per-em="1024" ascent="960" descent="-64" />
<missing-glyph horiz-adv-x="1024" />
<glyph unicode="&#x20;" horiz-adv-x="512" d="" />
<glyph unicode="&#xe900;" glyph-name="add-user" d="M614 16h-492.614c-17.076 0-27.378 9.532-31.998 15.212-7.978 9.81-11.066 22.58-8.472 35.038 41.51 199.39 217.382 345.042 420.48 349.954 3.518-0.136 7.052-0.204 10.604-0.204 3.586 0 7.156 0.070 10.708 0.208 62.24-1.46 122.1-15.664 178.088-42.28 19.954-9.48 43.814-0.998 53.298 18.956 9.484 19.952 1 43.814-18.954 53.298-19.678 9.354-39.756 17.412-60.186 24.162 66.166 49.664 109.046 128.746 109.046 217.656 0 149.98-122.018 272-272 272s-272-122.020-272-272c0-89.008 42.976-168.168 109.266-217.822-60.736-19.996-117.726-51.11-167.606-92.138-91.464-75.234-155.058-180.172-179.064-295.486-7.524-36.132 1.49-73.244 24.726-101.816 23.122-28.432 57.408-44.738 94.064-44.738h492.614c22.092 0 40 17.908 40 40s-17.908 40-40 40zM320 688c0 105.87 86.13 192 192 192s192-86.13 192-192c0-102.598-80.89-186.658-182.244-191.754-3.246 0.058-6.498 0.088-9.756 0.088-3.228 0-6.456-0.032-9.68-0.092-101.39 5.058-182.32 89.134-182.32 191.758zM984 166h-110v110c0 22.092-17.908 40-40 40s-40-17.908-40-40v-110h-110c-22.092 0-40-17.908-40-40s17.908-40 40-40h110v-110c0-22.092 17.908-40 40-40s40 17.908 40 40v110h110c22.092 0 40 17.908 40 40s-17.908 40-40 40z" />
<glyph unicode="&#xe901;" glyph-name="birthday-cake" d="M1014.923 247.076v149.305c-0.050 45.793-37.161 82.905-82.954 82.954h-66.352v165.898c0 9.16-7.432 16.583-16.592 16.583h-99.538c-9.16 0-16.594-7.423-16.594-16.583v-165.898h-149.305v199.076c0 9.16-7.432 16.592-16.594 16.592h-99.536c-9.162 0-16.594-7.432-16.594-16.592v-199.076h-149.307v165.898c0 9.16-7.423 16.583-16.592 16.583h-99.538c-9.16 0-16.592-7.423-16.592-16.583v-165.898h-66.352c-45.785-0.050-82.898-37.161-82.954-82.954v-149.305c-0.567-35.603 18.588-68.61 49.769-85.802v-179.634h-33.177c-9.16 0-16.592-7.426-16.592-16.594 0-9.16 7.432-16.583 16.592-16.583h962.207c9.162 0 16.594 7.423 16.594 16.583 0 9.168-7.432 16.594-16.594 16.594h-33.175v179.383c30.71 17.809 49.655 50.564 49.769 86.053v0zM766.070 628.641h66.361v-149.307h-66.361v149.307zM484.051 661.817h66.352v-182.482h-66.352v182.482zM202.023 628.641h66.361v-149.307h-66.361v149.307zM52.716 396.38c0 27.498 22.279 49.769 49.769 49.769h829.484c27.496 0 49.769-22.27 49.769-49.769v-149.305c-0.056-26.354-15.603-50.199-39.699-60.885-25.079-10.564-54.046-5.128-73.583 13.817-12.454 12.504-19.439 29.436-19.431 47.069v66.361c-0.081 25.054-14.297 47.902-36.731 59.058l-1.014 0.553c-2.655 1.259-5.396 2.328-8.196 3.197-1.653 0.553-3.163 1.095-4.811 1.493-2.125 0.486-4.268 0.868-6.435 1.136-1.452 0.21-2.848 0.648-4.333 0.762-0.793 0-1.558-0.114-2.328-0.081-0.787 0.031-1.647 0.243-2.515 0.243-1.84 0-3.61-0.382-5.436-0.528-1.826-0.154-3.764-0.235-5.631-0.55-2.864-0.536-5.704-1.267-8.47-2.175-1.502-0.463-3.018-0.796-4.478-1.356-3.091-1.257-6.086-2.758-8.942-4.486-1.047-0.592-2.158-1.022-3.188-1.655-3.87-2.515-7.473-5.419-10.751-8.674-12.494-12.413-19.504-29.322-19.464-46.936v-33.185c0-36.64-29.704-66.352-66.352-66.352-36.65 0-66.361 29.713-66.361 66.352v33.185c-0.081 25.054-14.297 47.902-36.731 59.058l-1.014 0.553c-2.655 1.259-5.396 2.328-8.196 3.197-1.653 0.553-3.163 1.095-4.811 1.493-2.125 0.486-4.268 0.868-6.435 1.136-1.452 0.21-2.848 0.648-4.333 0.762-0.793 0-1.558-0.114-2.328-0.081-0.787 0.031-1.647 0.243-2.515 0.243-1.84 0-3.61-0.382-5.436-0.528-1.834-0.154-3.764-0.235-5.631-0.55-2.856-0.536-5.687-1.267-8.454-2.175-1.516-0.463-3.035-0.796-4.495-1.356-3.082-1.257-6.061-2.75-8.909-4.47-1.063-0.592-2.191-1.039-3.222-1.655-3.87-2.507-7.473-5.402-10.751-8.657-12.502-12.421-19.512-29.347-19.464-46.969v-99.538c0-36.65-29.704-66.361-66.361-66.361-36.642 0-66.352 29.711-66.352 66.361v99.538c-0.081 25.054-14.297 47.902-36.731 59.058l-1.014 0.553c-2.655 1.259-5.396 2.328-8.194 3.197-1.655 0.553-3.165 1.095-4.813 1.493-2.125 0.486-4.268 0.868-6.435 1.136-1.46 0.21-2.848 0.648-4.331 0.762-1.477 0.114-3.182 0.162-4.846 0.162-36.648 0-66.361-29.704-66.361-66.361v-66.361c0.025-17.574-6.904-34.45-19.294-46.93-16.446-15.821-39.683-22.418-61.995-17.582-3.969 0.843-7.856 2.044-11.603 3.595-7.588 3.35-14.492 8.040-20.391 13.848-12.462 12.504-19.439 29.436-19.431 47.069v149.305zM102.485-18.36v167.278c1.655-0.276 3.317-0.349 4.981-0.544l1.265-0.137c14.525-1.502 29.193 0.201 42.979 4.981 4.21 1.485 8.325 3.246 12.3 5.274 0.852 0.413 1.664 0.868 2.546 1.331 3.213 1.745 6.345 3.666 9.355 5.751 0.966 0.658 1.94 1.275 2.889 1.973 25.388 18.474 40.227 48.128 39.813 79.529v66.361c-0.017 8.803 3.487 17.242 9.735 23.44 1.655 1.647 3.481 3.124 5.444 4.381 0.341 0.212 0.723 0.366 1.072 0.561 1.631 0.997 3.334 1.851 5.095 2.546 0.519 0.195 1.047 0.318 1.566 0.48 1.622 0.553 3.278 0.958 4.975 1.242 0.793 0.129 1.662 0.162 2.441 0.251 1.387 0.129 2.792 0.179 4.196 0.145 1.039-0.048 2.085-0.154 3.116-0.316 1.248-0.147 2.49-0.374 3.699-0.681 0.413-0.089 0.796-0.245 1.192-0.357 14.459-5.274 24.009-19.109 23.822-34.5v-96.73c0-54.97 44.568-99.538 99.538-99.538 54.987 0 99.546 44.568 99.546 99.538v99.538c0 11.27 5.737 21.759 15.213 27.837 0.285 0.179 0.609 0.301 0.893 0.48 1.687 1.030 3.456 1.915 5.29 2.628 0.469 0.179 0.949 0.285 1.41 0.43 1.631 0.553 3.286 0.982 4.983 1.29 0.796 0.114 1.662 0.164 2.393 0.237 1.387 0.137 2.8 0.187 4.21 0.145 1.047-0.048 2.077-0.154 3.116-0.316 1.25-0.147 2.484-0.374 3.701-0.681 0.413-0.089 0.793-0.245 1.192-0.357 14.506-5.234 24.121-19.076 23.951-34.5v-30.377c0-54.97 44.576-99.538 99.546-99.538 54.978 0 99.538 44.568 99.538 99.538v33.185c-0.017 8.803 3.487 17.242 9.735 23.44 1.655 1.647 3.481 3.124 5.444 4.381 0.349 0.212 0.731 0.366 1.088 0.586 1.622 0.98 3.325 1.826 5.078 2.522 0.519 0.195 1.063 0.318 1.664 0.48 1.597 0.553 3.236 0.958 4.892 1.242 0.796 0.129 1.664 0.162 2.443 0.251 1.387 0.129 2.792 0.179 4.196 0.145 1.047-0.048 2.085-0.154 3.116-0.316 1.248-0.147 2.49-0.374 3.699-0.681 0.413-0.089 0.796-0.245 1.192-0.357 14.45-5.282 24.001-19.115 23.814-34.5v-63.552c-0.025-26.443 10.45-51.815 29.152-70.525 3.286-3.203 6.792-6.19 10.5-8.923 1.070-0.779 2.183-1.477 3.317-2.225 2.783-1.898 5.608-3.666 8.537-5.274 1.167-0.625 2.328-1.24 3.504-1.817 3.344-1.664 6.767-3.138 10.273-4.414 0.69-0.251 1.371-0.567 2.085-0.802 9.102-3.109 18.596-4.894 28.203-5.307h0.112c4.634-0.187 9.266-0.050 13.875 0.413l1.655 0.187c1.664 0.179 3.325 0.251 4.981 0.528v-167.278h-829.556zM517.226 728.179c45.793 0.056 82.905 37.167 82.954 82.952 0 39.822-57.72 125.404-69.298 142.143-3.263 4.235-8.3 6.726-13.657 6.726-5.346 0-10.392-2.49-13.646-6.726-11.586-16.739-69.298-102.321-69.298-142.143 0.056-45.785 37.159-82.896 82.944-82.952v0zM517.226 913.858c23.872-37.306 49.769-84.608 49.769-102.726 0-27.488-22.27-49.769-49.769-49.769-27.48 0-49.767 22.281-49.767 49.769 0 18.118 25.897 65.42 49.767 102.726v0zM799.256 695.002c45.793 0.056 82.896 37.161 82.944 82.946 0 39.82-57.712 125.404-69.289 142.149-3.261 4.235-8.3 6.726-13.655 6.726-5.348 0-10.394-2.49-13.648-6.726-11.586-16.745-69.306-102.329-69.306-142.149 0.058-45.785 37.169-82.89 82.954-82.946v0zM799.256 880.681c23.87-37.313 49.769-84.608 49.769-102.732 0-27.482-22.281-49.769-49.769-49.769-27.49 0-49.769 22.287-49.769 49.769 0 18.125 25.899 65.42 49.769 102.732v0zM235.198 695.002c45.793 0.056 82.905 37.161 82.954 82.946 0 39.82-57.72 125.404-69.291 142.149-3.269 4.235-8.308 6.726-13.663 6.726-5.346 0-10.394-2.49-13.646-6.726-11.586-16.745-69.298-102.329-69.298-142.149 0.056-45.785 37.159-82.89 82.944-82.946v0zM235.198 880.681c23.87-37.313 49.769-84.608 49.769-102.732 0-27.482-22.273-49.769-49.769-49.769-27.48 0-49.769 22.287-49.769 49.769 0 18.125 25.899 65.42 49.769 102.732v0z" />
<glyph unicode="&#xe902;" glyph-name="calendar" d="M940.639 850.091h-131.565v60.568c0 16.763-13.615 30.379-30.379 30.379-16.725 0-30.379-13.615-30.379-30.379v-60.568h-181.893v60.568c0 16.763-13.653 30.379-30.379 30.379-16.763 0-30.379-13.615-30.379-30.379v-60.568h-182.082v60.568c0 16.763-13.615 30.379-30.379 30.379-16.725 0-30.189-13.615-30.189-30.379v-60.568h-131.565c-44.601 0-80.896-36.295-80.896-80.896v-718.089c0-44.753 36.295-81.048 80.896-81.048h809.188c44.601 0 80.896 36.295 80.896 81.048v718.089c0 44.601-36.295 80.896-80.896 80.896v0zM960.777 51.105c0-11.264-9.026-20.29-20.139-20.29h-809.188c-11.112 0-20.139 9.026-20.139 20.29v718.089c0 11.112 9.026 20.139 20.139 20.139h131.565v-60.757c0-16.725 13.464-30.189 30.189-30.189 16.763 0 30.379 13.464 30.379 30.189v60.757h182.082v-60.757c0-16.725 13.615-30.189 30.379-30.189 16.725 0 30.379 13.464 30.379 30.189v60.757h181.893v-60.757c0-16.725 13.653-30.189 30.379-30.189 16.763 0 30.379 13.464 30.379 30.189v60.757h131.565c11.112 0 20.139-9.026 20.139-20.139v-718.089zM263.016 576.872h121.325v-90.946h-121.325v90.946zM263.016 425.169h121.325v-90.946h-121.325v90.946zM263.016 273.465h121.325v-90.946h-121.325v90.946zM475.288 273.465h121.325v-90.946h-121.325v90.946zM475.288 425.169h121.325v-90.946h-121.325v90.946zM475.288 576.872h121.325v-90.946h-121.325v90.946zM687.749 273.465h121.325v-90.946h-121.325v90.946zM687.749 425.169h121.325v-90.946h-121.325v90.946zM687.749 576.872h121.325v-90.946h-121.325v90.946z" />
<glyph unicode="&#xe903;" glyph-name="check-mark" d="M738.328 610.46c15.626-15.624 15.626-40.952 0-56.57l-268.344-268.35c-15.624-15.618-40.944-15.618-56.57 0l-127.742 127.75c-15.626 15.616-15.626 40.944 0 56.562 15.618 15.624 40.946 15.624 56.562 0l99.462-99.462 240.062 240.070c15.624 15.618 40.952 15.618 56.57 0v0zM1024 448c0-283.008-229.032-512-512-512-283.008 0-512 229.032-512 512 0 283.008 229.032 512 512 512 283.008 0 512-229.032 512-512v0zM944 448c0 238.79-193.242 432-432 432-238.79 0-432-193.242-432-432 0-238.79 193.242-432 432-432 238.79 0 432 193.242 432 432v0z" />
<glyph unicode="&#xe904;" glyph-name="copy" d="M653.981 772.82h-463.737c-43.411 0-78.907-35.24-78.907-78.907v-665.472c0-43.411 35.24-78.907 78.907-78.907h463.737c43.411 0 78.907 35.24 78.907 78.907v665.472c-0.255 43.411-35.495 78.907-78.907 78.907v0zM677.474 28.696c0-13.023-10.725-23.749-23.749-23.749h-463.481c-13.023 0-23.749 10.725-23.749 23.749v665.217c0 13.023 10.725 23.749 23.749 23.749h463.737c13.023 0 23.749-10.725 23.749-23.749v-665.217zM831.457 947.232h-463.737c-43.411 0-78.907-35.24-78.907-78.907 0-15.322 12.257-27.579 27.579-27.579s27.579 12.257 27.579 27.579c0 13.023 10.725 23.749 23.749 23.749h463.737c13.023 0 23.749-10.725 23.749-23.749v-665.472c0-13.023-10.725-23.749-23.749-23.749-15.322 0-27.579-12.257-27.579-27.579s12.257-27.579 27.579-27.579c43.411 0 78.907 35.24 78.907 78.907v665.472c0 43.667-35.495 78.907-78.907 78.907v0z" />
<glyph unicode="&#xe905;" glyph-name="delete" d="M807.793 837.438h-159.436c-7.959 68.974-66.587 122.562-137.683 122.562s-129.724-53.853-137.683-122.562h-159.171c-64.464 0-116.991-52.526-116.991-116.991v-6.102c0-49.343 30.773-91.523 74.015-108.767v-552.589c0-64.464 52.526-116.991 116.991-116.991h446.209c64.464 0 116.991 52.526 116.991 116.991v552.854c43.241 17.244 74.015 59.424 74.015 108.767v6.102c-0.265 64.199-52.792 116.725-117.256 116.725v0zM510.674 904.555c40.323 0 74.015-28.916 81.708-67.117h-163.15c7.428 38.201 41.119 67.117 81.442 67.117v0zM795.324 53.256c0-33.956-27.59-61.546-61.546-61.546h-445.944c-33.956 0-61.546 27.59-61.546 61.546v544.099h569.036v-544.099zM869.339 714.346c0-33.956-27.59-61.546-61.546-61.546h-593.973c-33.956 0-61.546 27.59-61.546 61.546v6.102c0 33.956 27.59 61.546 61.546 61.546h593.973c33.956 0 61.546-27.59 61.546-61.546v-6.102zM362.114 62.541c15.387 0 27.855 12.468 27.855 27.855v312.24c0 15.387-12.468 27.855-27.855 27.855s-27.855-12.468-27.855-27.855v-312.24c0-15.387 12.468-27.855 27.855-27.855v0zM510.674 62.541c15.387 0 27.855 12.468 27.855 27.855v312.24c0 15.387-12.468 27.855-27.855 27.855s-27.855-12.468-27.855-27.855v-312.24c0.265-15.387 12.734-27.855 27.855-27.855v0zM659.498 62.541c15.387 0 27.855 12.468 27.855 27.855v312.24c0 15.387-12.468 27.855-27.855 27.855s-27.855-12.468-27.855-27.855v-312.24c0-15.387 12.468-27.855 27.855-27.855v0z" />
<glyph unicode="&#xe906;" glyph-name="edit" horiz-adv-x="1031" d="M986.191 42.076h-918.974c-18.905 0-34.658-15.754-34.658-34.658s15.754-34.658 34.658-34.658h920.025c18.905 0 34.658 15.754 34.658 34.658-1.050 18.905-16.804 34.658-35.709 34.658v0zM32.558 346.65l-1.050-163.84c0-9.452 3.151-18.905 10.503-25.206 6.302-6.302 14.704-10.503 24.156-10.503l162.79 1.050c9.452 0 17.854 3.151 24.156 10.503l562.937 562.937c13.653 13.653 13.653 35.709 0 49.362l-160.689 162.79c-13.653 13.653-35.709 13.653-49.362 0l-113.428-113.428-450.56-449.51c-5.251-6.302-9.452-14.704-9.452-24.156v0zM630.154 860.226l113.428-113.428-64.066-64.066-112.377 113.428 63.015 64.066zM101.875 331.947l414.851 414.851 113.428-113.428-414.851-413.801-114.478-1.050 1.050 113.428z" />
<glyph unicode="&#xe907;" glyph-name="ppt" d="M994.603 479.847c0 2.45 0 2.45 0 4.9 0 0 0 2.45 0 2.45 0 2.45-2.45 4.9-4.9 4.9v0l-112.689 112.689v110.239c0 0 0 0 0 2.45s0 2.45 0 4.9c0 0 0 0 0 2.45s-2.45 4.9-4.9 4.9l-176.383 176.383c-2.45 2.45-2.45 2.45-4.9 4.9 0 0 0 0-2.45 0s-2.45 0-4.9 0c0 0 0 0 0 0h-489.952c-12.249 0-19.598-9.799-19.598-19.598v-286.622l-112.689-110.239c-2.45-2.45-2.45-2.45-4.9-4.9 0 0 0 0 0-2.45s0-2.45 0-4.9c0 0 0 0 0-2.45v-372.364c0-9.799 9.799-19.598 19.598-19.598h97.99v-97.99c0-9.799 9.799-19.598 19.598-19.598h666.335c9.799 0 19.598 9.799 19.598 19.598v97.99h97.99c9.799 0 19.598 9.799 19.598 19.598l-2.45 372.364c0 0 0 0 0 0v0zM928.459 499.445h-51.445v51.445l51.445-51.445zM810.871 734.622h-110.239v110.239l110.239-110.239zM210.679 871.809h450.756v-156.785c0-9.799 9.799-19.598 19.598-19.598h156.785v-195.981h-627.139v372.364zM173.933 550.89v-51.445h-51.445l51.445 51.445zM840.268 9.493h-629.589v78.392h627.139v-78.392zM957.856 127.081h-862.316v333.167h862.316v-333.167zM624.689 367.158h44.096v-200.88h39.196v200.88h44.096v34.297h-127.388v-34.297zM597.742 386.756c-7.349 4.9-14.699 9.799-22.048 12.249s-14.699 2.45-24.498 2.45h-66.144v-235.177h39.196v95.541h26.947c7.349 0 17.148 2.45 24.498 4.9s14.699 7.349 19.598 12.249c4.9 4.9 9.799 12.249 14.699 22.048 2.45 9.799 4.9 19.598 4.9 31.847s-2.45 24.498-7.349 34.297c2.45 7.349-4.9 14.699-9.799 19.598v0zM573.244 303.464c-4.9-7.349-14.699-9.799-22.048-9.799h-22.048v75.943h22.048c9.799 0 17.148-2.45 22.048-9.799 4.9-4.9 9.799-14.699 9.799-26.947-2.45-12.249-4.9-22.048-9.799-29.397v0zM431.158 386.756c-7.349 4.9-12.249 9.799-22.048 12.249-7.349 2.45-14.699 2.45-24.498 2.45h-66.144v-235.177h39.196v95.541h26.947c7.349 0 17.148 2.45 24.498 4.9s14.699 7.349 19.598 12.249c4.9 4.9 9.799 12.249 14.699 22.048 2.45 9.799 4.9 19.598 4.9 31.847s-2.45 24.498-7.349 34.297c2.45 7.349-2.45 14.699-9.799 19.598v0zM406.66 303.464c-4.9-7.349-14.699-9.799-22.048-9.799h-22.048v75.943h22.048c9.799 0 17.148-2.45 22.048-9.799 4.9-4.9 9.799-14.699 9.799-26.947s-2.45-22.048-9.799-29.397v0z" />
<glyph unicode="&#xe908;" glyph-name="send-button" d="M70.063 92.295l905.432 388.042-905.432 388.042v-301.811l646.737-86.232-646.737-86.232v-301.811z" />
<glyph unicode="&#xe909;" glyph-name="share" d="M839.177 347.329c-65.833 0-122.675-36.737-152.909-90.383l-329.955 126.903c2.864 12.583 4.681 25.546 4.681 38.983 0 17.432-3.327 33.941-8.065 49.855l338.767 156.372c31.459-48.27 85.695-80.391 147.477-80.391 97.131 0 176.173 79.041 176.173 176.173s-79.041 176.173-176.17 176.173-176.173-79.041-176.173-176.173c0-17.432 3.327-33.941 8.065-49.855l-338.767-156.372c-31.461 48.272-85.697 80.391-147.48 80.391-97.131 0-176.173-79.041-176.173-176.173s79.041-176.173 176.173-176.173c65.833 0 122.675 36.737 152.909 90.383l329.955-126.903c-2.864-12.583-4.681-25.546-4.681-38.983 0-97.129 79.041-176.17 176.173-176.17s176.173 79.041 176.173 176.173c-0.002 97.129-79.044 176.17-176.173 176.17zM839.177 850.68c69.382 0 125.836-56.454 125.836-125.836s-56.454-125.839-125.836-125.839-125.836 56.454-125.836 125.836 56.452 125.839 125.836 125.839zM184.823 296.995c-69.382 0-125.836 56.454-125.836 125.836s56.454 125.836 125.836 125.836 125.836-56.454 125.836-125.836-56.452-125.836-125.836-125.836zM839.177 45.32c-69.382 0-125.836 56.454-125.836 125.836s56.454 125.836 125.836 125.836 125.836-56.452 125.836-125.834c0-69.384-56.454-125.839-125.836-125.839z" />
<glyph unicode="&#xe90a;" glyph-name="team" d="M890.024 458.642c2.154-1.078 4.442-1.586 6.696-1.586 5.502 0 10.8 3.040 13.428 8.294 3.706 7.41 0.702 16.42-6.708 20.126-34.844 17.42-100.174 17.622-102.938 17.622-8.284 0-15-6.716-15-15s6.716-15 15-15c16.858-0.002 65.804-2.598 89.522-14.456zM978.224 271.914l-61.95 17.7c-2.674 0.764-4.542 3.24-4.542 6.022v20.678c5.040 3.492 9.848 7.4 14.342 11.762 21.78 21.136 33.774 49.486 33.774 79.83v28.534l5.99 11.978c6.574 13.15 10.048 27.872 10.048 42.572v77.3c0 8.284-6.716 15-15 15h-144.346c-52.488 0-95.192-42.704-95.192-95.192v-0.894c0-12.224 2.89-24.466 8.356-35.398l7.682-15.364v-24.5c0-38.828 19.134-73.666 48.116-94.63l0.004-21.672c0-3.342 0-4.726-12.386-8.266l-30.228-8.636-87.442 31.796c0.314 4.126-1.078 8.322-4.088 11.484l-27.942 29.356v49.28c2.954 2.434 5.866 4.934 8.688 7.578 35.25 33.040 55.466 79.688 55.466 127.982v39.356c10.644 23.162 16.038 47.672 16.038 72.914v160.38c0 8.284-6.716 15-15 15h-224.538c-79.020 0-143.306-64.288-143.306-143.306v-32.078c0-25.242 5.394-49.752 16.038-72.914v-33.862c0-56.072 24.932-106.588 64.154-139.892v-50.44l-27.942-29.356c-3.010-3.162-4.402-7.358-4.088-11.484l-92.29-33.558c-6.688-2.432-12.902-5.726-18.544-9.716l-14.492 7.246c43.14 18.778 56.806 45.188 57.462 46.5 2.112 4.222 2.112 9.194 0 13.416-10.814 21.628-12.124 61.27-13.176 93.122-0.35 10.604-0.682 20.622-1.316 29.542-5.114 71.948-59.81 126.206-127.23 126.206s-122.118-54.256-127.23-126.206c-0.634-8.922-0.966-18.94-1.316-29.546-1.052-31.85-2.364-71.488-13.176-93.116-2.112-4.222-2.112-9.194 0-13.416 0.656-1.312 14.294-27.668 57.52-46.468l-40.254-20.126c-21.52-10.766-34.888-32.396-34.888-56.456v-110.818c0-8.284 6.716-15 15-15s15 6.716 15 15v110.818c0 12.624 7.014 23.974 18.304 29.62l50.126 25.062 17.436-16.57c12.192-11.586 27.832-17.376 43.478-17.376 15.642 0 31.29 5.794 43.478 17.376l17.434 16.568 16.344-8.172c-7.696-12.314-12.064-26.754-12.064-41.88v-115.45c0-8.284 6.716-15 15-15s15 6.716 15 15v115.45c0 20.592 13.002 39.156 32.356 46.194l97.304 35.382 40.506-60.762c5.178-7.768 13.476-12.75 22.766-13.67 1.036-0.102 2.066-0.152 3.094-0.152 8.196 0 16.046 3.226 21.914 9.092l24.712 24.712v-156.248c0-8.284 6.716-15 15-15s15 6.716 15 15v156.248l24.712-24.712c5.866-5.868 13.716-9.094 21.914-9.094 1.026 0 2.058 0.050 3.092 0.152 9.292 0.92 17.59 5.902 22.768 13.67l40.508 60.76 97.302-35.382c19.352-7.038 32.356-25.602 32.356-46.194v-115.45c0-8.284 6.716-15 15-15s15 6.716 15 15v115.45c0 20.856-8.286 40.416-22.186 54.882l3.706 1.058c3.738 1.068 8.838 2.53 13.958 5.040l38.298-38.298v-138.132c0-8.284 6.716-15 15-15s15 6.716 15 15v138.132l38.032 38.032c2.022-1.028 4.146-1.896 6.382-2.534l61.952-17.7c14.14-4.040 24.018-17.134 24.018-31.842v-124.088c0-8.284 6.716-15 15-15s15 6.716 15 15v124.088c0 28.038-18.824 52.994-45.776 60.696zM222.458 298.358l0.002 17.89c17.45 12.014 31.324 28.914 39.602 48.898 1.798-12.916 4.452-25.152 8.54-35.836-5.974-7.278-20.114-20.86-48.144-30.952zM62.040 454.956c1.916 26.952 12.686 51.788 30.326 69.936 17.798 18.312 41.586 28.396 66.982 28.396s49.182-10.084 66.982-28.396c17.64-18.148 28.41-42.984 30.326-69.936 0.592-8.354 0.916-18.094 1.256-28.406 0.030-0.886 0.060-1.784 0.090-2.676-16.32 25.144-41.524 43.674-74.090 54.138-30.086 9.666-55.962 9.068-57.054 9.040-3.928-0.11-7.656-1.754-10.382-4.582l-27.064-28.068c-5.75-5.964-5.578-15.46 0.386-21.21s15.46-5.576 21.21 0.386l22.52 23.354c19.394-0.948 81.788-8.204 106.054-61.638-6.106-39.378-39.95-68.62-80.23-68.62-44.792 0-81.23 36.44-81.23 81.23 0 8.284-6.716 15-15 15-0.84 0-1.66-0.086-2.462-0.22 0.044 1.29 0.086 2.582 0.13 3.86 0.334 10.314 0.656 20.056 1.25 28.412zM48.090 329.314c4.096 10.708 6.752 22.972 8.55 35.918 8.272-19.834 22.126-36.766 39.59-48.846v-17.978c-28.058 10.096-42.132 23.556-48.14 30.906zM136.534 257.814l-13.95 13.256c2.354 4.41 3.648 9.41 3.648 14.648v15.988c10.464-3.27 21.588-5.034 33.116-5.034 11.514 0 22.632 1.772 33.114 5.024l-0.002-15.976c0-5.24 1.292-10.242 3.648-14.654l-13.948-13.254c-12.794-12.156-32.836-12.154-45.626 0.002zM366.806 541.706v37.216c0 2.258-0.51 4.488-1.492 6.522-9.652 19.988-14.546 41.196-14.546 63.036v32.078c0 62.478 50.83 113.306 113.306 113.306h209.538v-145.384c0-21.84-4.894-43.048-14.546-63.036-0.982-2.034-1.492-4.264-1.492-6.522v-42.71c0-40.622-16.33-78.3-45.982-106.094-3.702-3.468-7.544-6.72-11.516-9.75-0.088-0.060-0.172-0.126-0.258-0.188-27.778-21.090-61.802-31.34-97.334-29.038-76.082 4.926-135.678 71.062-135.678 150.564zM500.542 361.206c3.954-0.256 7.884-0.382 11.802-0.382 28.682 0 56.286 6.856 81.076 19.87v-27.4l-81.23-55.524-81.23 55.524v28c21.018-11.362 44.552-18.468 69.582-20.088zM451.264 239.884c-0.104-0.104-0.346-0.35-0.836-0.298-0.488 0.048-0.68 0.334-0.762 0.458l-46.65 69.976 15.012 15.774 70.77-48.374-37.534-37.536zM574.714 240.042c-0.082-0.124-0.274-0.41-0.762-0.458-0.49-0.062-0.73 0.196-0.836 0.298l-37.534 37.534 70.77 48.376 15.014-15.774-46.652-69.976zM767.386 411.938v28.042c0 2.33-0.542 4.626-1.584 6.708l-9.266 18.532c-3.394 6.79-5.188 14.39-5.188 21.982v0.894c0 35.948 29.246 65.192 65.192 65.192h129.346v-62.3c0-10.068-2.38-20.15-6.882-29.156l-7.572-15.144c-1.042-2.084-1.584-4.378-1.584-6.708v-32.076c0-22.16-8.76-42.864-24.666-58.3-15.898-15.428-36.9-23.576-59.074-22.892-43.408 1.302-78.722 39.536-78.722 85.226zM845.206 296.726c1.156-0.036 2.302-0.052 3.454-0.052 11.384 0 22.496 1.72 33.072 5.002v-6.040c0-2.992 0.376-5.924 1.084-8.742l-34.2-34.198-34.040 34.038c0.594 2.698 0.93 5.652 0.928 8.91l-0.002 6.33c9.446-3.1 19.402-4.94 29.704-5.248zM944.846 198.368c-8.284 0-15-6.716-15-15v-96.23c0-8.284 6.716-15 15-15s15 6.716 15 15v96.23c0 8.284-6.716 15-15 15zM79.154 178.54c-8.284 0-15-6.716-15-15v-76.402c0-8.284 6.716-15 15-15s15 6.716 15 15v76.402c0 8.284-6.716 15-15 15zM414.92 650.96c0 0.51 0.336 0.946 0.784 1.014 19.334 2.914 57.7 7.41 97.45 4.76 46.776-3.114 80.656-14.856 100.698-34.9 5.858-5.858 15.356-5.858 21.212 0 5.858 5.858 5.858 15.356 0 21.212-56.732 56.732-175.43 45.886-223.834 38.59-15.246-2.298-26.31-15.2-26.31-30.678v-34.556c0-8.284 6.716-15 15-15s15 6.716 15 15v34.558zM335.768 166.29c-8.284 0-15-6.716-15-15v-64.154c0-8.284 6.716-15 15-15s15 6.716 15 15v64.154c0 8.284-6.716 15-15 15zM688.612 166.29c-8.284 0-15-6.716-15-15v-64.154c0-8.284 6.716-15 15-15s15 6.716 15 15v64.154c0 8.284-6.716 15-15 15z" />
<glyph unicode="&#xe90b;" glyph-name="trash" d="M930.846 863.518h-275.22v48.57c0 26.418-21.464 47.91-47.84 47.91h-191.57c-26.38 0-47.84-21.492-47.84-47.91v-48.568h-275.222c-13.31 0-24.098-10.788-24.098-24.098s10.788-24.098 24.098-24.098h44.664l30.456-792.792c1.864-48.522 41.362-86.532 89.924-86.532h507.608c48.562 0 88.060 38.012 89.92 86.534l30.456 792.792h44.664c13.306 0 24.098 10.788 24.098 24.098 0 13.306-10.788 24.094-24.098 24.094zM416.57 911.806h190.86v-48.286h-190.86v48.286zM807.568 24.382c-0.866-22.536-19.21-40.188-41.764-40.188h-507.606c-22.552 0-40.896 17.654-41.764 40.19l-30.384 790.94h651.904l-30.386-790.942zM341.176 620.494c-0.156 0-0.316 0-0.472-0.004-13.304-0.256-23.886-11.252-23.63-24.556l7.562-393.268c0.254-13.15 10.99-23.634 24.084-23.634 0.156 0 0.316 0 0.472 0.004 13.306 0.256 23.886 11.248 23.63 24.556l-7.562 393.268c-0.254 13.148-10.988 23.634-24.084 23.634zM511.996 620.494c-13.31 0-24.098-10.788-24.098-24.098v-393.268c0-13.308 10.788-24.098 24.098-24.098s24.098 10.788 24.098 24.098v393.268c0 13.308-10.788 24.098-24.098 24.098zM674.804 179.036c0.156-0.002 0.316-0.004 0.472-0.004 13.092 0 23.832 10.488 24.082 23.634l7.562 393.268c0.256 13.306-10.324 24.3-23.63 24.556-13.256 0.294-24.302-10.324-24.556-23.63l-7.562-393.268c-0.256-13.308 10.326-24.302 23.632-24.556z" />
<glyph unicode="&#xe90c;" glyph-name="upload" d="M994.557 460.549c-16.297 0-29.337-13.040-29.337-29.337v-266.832c0-72.574-59.096-131.471-131.458-131.471h-643.629c-72.574 0-131.458 59.11-131.458 131.471v271.181c0 16.297-13.040 29.337-29.337 29.337s-29.337-13.040-29.337-29.337v-271.181c0-104.956 85.399-190.133 190.133-190.133h643.629c104.956 0 190.133 85.389 190.133 190.133v266.832c0 16.085-13.040 29.337-29.337 29.337v0zM346.153 686.532l136.458 136.466v-595.172c0-16.297 13.038-29.337 29.335-29.337s29.337 13.040 29.337 29.337v595.172l136.458-136.466c5.655-5.644 13.25-8.689 20.646-8.689 7.608 0 14.993 2.822 20.638 8.689 11.522 11.522 11.522 29.995 0 41.506l-186.441 186.441c-5.432 5.432-13.030 8.689-20.638 8.689-7.817 0-15.213-3.045-20.646-8.689l-186.441-186.441c-11.511-11.511-11.511-29.984 0-41.506 11.299-11.299 29.995-11.299 41.294 0v0z" />
<glyph unicode="&#xe90d;" glyph-name="whatsapp" d="M507.369 913.455c-266.915 0-484.096-217.181-484.096-484.096 0-90.996 25.274-179.456 73.263-256.186-19.084-67.002-53.62-193.722-53.993-195.072-1.815-6.563 0.093-13.545 5.004-18.199 4.911-4.724 12.009-6.447 18.455-4.445l191.814 58.996c75.194-45.265 161.28-69.19 249.553-69.19 266.915 0 484.096 217.181 484.096 484.096s-217.181 484.096-484.096 484.096v0zM507.369-17.455c-84.177 0-166.097 23.552-237.103 68.003-2.909 1.815-6.353 2.816-9.821 2.816-1.908 0-3.724-0.279-5.446-0.815l-167.54-51.549c12.265 44.916 34.351 125.277 47.174 169.914 1.559 5.167 0.628 10.822-2.257 15.36-47.011 72.355-71.82 156.369-71.82 243.084 0 246.365 200.448 446.813 446.813 446.813s446.813-200.448 446.813-446.813c0-246.365-200.448-446.813-446.813-446.813v0zM823.552 315.369c-34.374 19.084-63.651 38.167-85.015 52.177-16.268 10.636-28.090 18.269-36.724 22.644-24.087 12.079-42.449 3.537-49.361-3.468-0.908-0.908-1.629-1.815-2.351-2.909-25.111-37.539-57.833-73.542-67.375-75.543-11.101 1.722-62.999 31.279-114.455 74.193-52.643 43.799-85.713 85.807-90.624 114.362 33.722 34.816 45.894 56.623 45.894 81.548 0 25.623-59.811 132.631-70.633 143.453-10.822 10.799-35.281 12.544-72.634 5.073-3.537-0.721-6.912-2.537-9.542-5.073-4.468-4.561-110.359-112.454-59.997-243.293 55.18-143.523 196.911-310.435 377.623-337.524 20.55-3.095 39.82-4.655 57.833-4.655 106.263 0 168.983 53.551 186.717 159.651 1.28 7.727-2.444 15.546-9.356 19.363v0zM593.92 177.827c-191.092 28.625-311.459 217.996-348.463 314.089-36.724 95.348 30.906 180.364 47.895 199.54 13.824 2.351 28.369 3.351 34.467 2.351 12.637-17.617 56.553-100.538 58.554-115.433 0-9.821-3.188-23.459-41.1-61.37-3.537-3.468-5.446-8.192-5.446-13.196 0-97.443 205.545-232.727 241.99-232.727 31.628 0 73.007 53.271 96.465 87.924 1.35 0 3.631-0.465 6.889-2.095 6.726-3.375 18.362-11.008 33.001-20.55 19.456-12.73 45.196-29.533 75.636-46.988-13.801-66.467-52.457-133.748-199.889-111.546v0z" />
<glyph unicode="&#xe90e;" glyph-name="whatsapp-logo" d="M1024 461.17c0-275.442-225.052-498.788-502.67-498.788-88.164 0-170.994 22.514-243.001 62.066l-278.329-88.448 90.724 267.605c-45.781 75.179-72.107 163.342-72.107 257.564 0 275.499 225.052 498.83 502.713 498.83 277.618 0 502.67-223.332 502.67-498.83v0zM521.33 880.555c-233.102 0-422.656-188.103-422.656-419.385 0-91.719 29.881-176.725 80.498-245.888l-52.779-155.719 162.389 51.598c66.716-43.776 146.66-69.333 232.548-69.333 233.003 0 422.613 188.117 422.613 419.342 0 231.282-189.611 419.385-422.613 419.385v0zM775.168 346.283c-3.115 5.106-11.335 8.164-23.609 14.279-12.331 6.101-72.946 35.712-84.224 39.765-11.278 4.068-19.556 6.116-27.719-6.101-8.22-12.231-31.844-39.78-39.054-47.943-7.168-8.178-14.336-9.173-26.667-3.058-12.345 6.101-52.068 19.058-99.115 60.658-36.608 32.455-61.34 72.448-68.565 84.679-7.154 12.217-0.711 18.83 5.39 24.932 5.561 5.504 12.345 14.279 18.503 21.39 6.172 7.168 8.22 12.288 12.331 20.452s2.062 15.275-1.052 21.39c-3.058 6.101-27.719 66.276-38.002 90.78-10.212 24.434-20.494 20.38-27.719 20.38-7.168 0-15.388 1.010-23.609 1.010s-21.561-3.058-32.839-15.289c-11.278-12.217-43.108-41.828-43.108-101.945 0-60.16 44.117-118.329 50.276-126.436 6.172-8.178 85.22-135.666 210.503-184.619 125.284-48.939 125.284-32.612 147.883-30.549 22.556 1.991 72.889 29.554 83.172 58.112s10.283 53.049 7.225 58.112v0z" />
<glyph unicode="&#xe90f;" glyph-name="web" horiz-adv-x="1152" d="M669.184-39.68c60.288 57.344 107.904 125.056 141.056 199.296 44.8-16.128 87.808-37.632 128.128-64.384-70.528-72.192-164.224-121.216-269.184-134.912zM280.064 95.232c40.32 26.752 83.2 48.384 128.128 64.384 33.152-74.24 80.64-141.952 140.928-199.296-104.832 13.696-198.656 62.72-269.056 134.912zM864.384 399.488h204.672c-3.84-105.856-43.648-202.624-107.52-278.656-43.392 29.44-89.728 52.864-138.24 70.4 25.088 65.792 39.168 135.936 41.088 208.256zM626.176 228.352v171.136h204.16c-1.92-68.48-15.36-135.168-39.424-197.504-53.12 16.128-108.288 24.832-164.736 26.368zM626.176-32.768v227.072c51.84-1.536 102.528-9.472 151.424-23.808-34.688-77.056-86.016-146.304-151.424-203.264zM592.128 194.304v-227.072c-65.28 56.96-116.48 126.336-151.424 203.136 48.896 14.464 99.712 22.4 151.424 23.936zM388.096 399.488h204.032v-171.136c-56.32-1.536-111.488-10.24-164.608-26.24-23.936 62.208-37.504 128.896-39.424 197.376zM414.72 688c-43.392 14.976-85.12 35.072-124.288 59.904 69.12 66.688 158.976 111.744 258.816 124.8-56.32-53.632-101.76-116.096-134.528-184.704zM803.712 688c-32.768 68.608-78.208 131.072-134.528 184.704 99.84-13.056 189.696-58.112 258.816-124.8-39.168-24.832-80.896-44.928-124.288-59.904zM626.176 655.744v210.048c61.056-53.248 109.824-117.248 144.384-188.16-46.72-13.056-95.104-20.48-144.384-21.888zM626.176 621.696c54.272 1.408 107.392 9.6 158.72 24.448 27.776-66.56 43.392-138.496 45.44-212.608h-204.16v188.16zM592.128 621.696v-188.16h-204.032c2.176 74.112 17.664 146.048 45.44 212.608 51.2-14.848 104.32-23.040 158.592-24.448zM592.128 655.744c-49.28 1.28-97.664 8.704-144.384 21.76 34.56 70.912 83.328 134.912 144.384 188.16v-209.92zM1069.056 433.536h-204.672c-2.048 77.696-18.048 153.216-46.848 223.104 47.104 16.64 92.288 38.656 134.656 66.176 69.376-77.312 112.768-178.304 116.864-289.28zM266.24 722.944c42.368-27.648 87.552-49.664 134.656-66.304-28.8-70.016-44.8-145.408-46.848-223.104h-204.672c4.096 110.976 47.488 211.968 116.864 289.408zM149.376 399.488h204.544c1.92-72.32 16.128-142.464 41.216-208.256-48.512-17.536-94.848-41.088-138.24-70.4-63.872 75.904-103.68 172.8-107.52 278.656zM978.944 88.832c77.44 87.296 124.544 202.112 124.544 327.68 0 130.688-51.072 249.6-134.144 338.048-0.128 0.128-0.128 0.256-0.128 0.256-86.656 92.032-208 151.040-342.784 155.648l-9.728 0.256c-2.56 0.128-4.992 0.128-7.552 0.128s-4.992-0.128-7.424-0.128l-9.6-0.256c-134.912-4.736-256.256-63.616-342.912-155.648 0 0-0.128-0.128-0.128-0.256 0 0 0 0-0.128 0-83.072-88.448-134.144-207.36-134.144-338.048 0-125.568 47.232-240.384 124.544-327.68 0.256-0.128 0.256-0.384 0.384-0.512 0.256-0.384 0.768-0.512 1.024-1.024 87.040-97.28 211.84-160 351.36-164.736l9.6-0.384c2.432 0 4.992-0.128 7.424-0.128 2.56 0 4.992 0.128 7.552 0.128l9.6 0.256c139.52 4.864 264.576 67.712 351.616 165.248 0.128 0.384 0.512 0.384 0.768 0.768 0.128 0 0.128 0.256 0.256 0.384z" />
<glyph unicode="&#xe910;" glyph-name="email-icon" horiz-adv-x="1229" d="M984.542 199.919c-4.233 0-8.465 1.502-11.878 4.71l-199.953 187.529c-6.963 6.622-7.305 17.476-0.887 24.644 6.69 6.963 17.681 7.305 24.644 0.614l200.090-187.529c6.963-6.622 7.305-17.681 0.683-24.576-3.345-3.55-7.987-5.393-12.698-5.393zM316.962 199.919c-4.779 0-9.353 1.843-12.766 5.461-6.622 6.963-6.281 17.954 0.614 24.576l200.158 187.529c7.1 6.69 18.159 6.281 24.576-0.614 6.69-7.168 6.349-18.022-0.614-24.644l-200.158-187.529c-3.345-3.277-7.646-4.779-11.81-4.779zM198.588 756.975c-28.672 0-52.087-23.415-52.087-52.087v-592.555c0-28.877 23.415-52.087 52.087-52.087h904.26c28.877 0 52.087 23.279 52.087 52.087v592.555c0 28.672-23.211 52.087-52.087 52.087h-904.26zM1102.848 25.429h-904.26c-47.923 0-86.903 38.844-86.903 86.903v592.555c0 47.855 39.049 86.903 86.903 86.903h904.26c47.855 0 86.903-39.049 86.903-86.903v-592.555c0-48.060-39.049-86.903-86.903-86.903zM650.786 321.229c-23.211 0-46.353 7.646-63.829 22.938l-446.464 389.393c-7.305 6.212-7.987 17.271-1.707 24.576s17.271 7.851 24.576 1.707l446.259-389.393c22.255-19.388 59.733-19.388 81.988 0l445.713 388.71c7.305 6.281 18.159 5.666 24.644-1.707 6.281-7.305 5.598-18.159-1.707-24.508l-445.713-388.71c-17.545-15.36-40.619-23.006-63.761-23.006z" />
<glyph unicode="&#xe911;" glyph-name="phone" horiz-adv-x="1170" d="M309.394 898.121h-5.705c-8.777-0.585-17.701-3.072-25.746-8.046l-80.311-48.128c-25.161-14.775-43.739-38.912-51.639-66.999-28.965-105.326-7.168-287.159 260.535-554.862 212.992-212.992 371.566-270.19 480.549-270.19 25.161-0.146 50.030 3.218 74.313 9.655 28.087 7.899 52.224 26.331 66.999 51.639l48.274 80.165c15.36 25.6 7.899 58.661-16.969 75.191l-191.927 128c-24.283 16.091-57.051 10.825-75.045-12.142l-55.881-71.973c-7.168-9.509-20.187-12.142-30.574-6.437l-10.679 5.851c-35.255 19.163-79.141 43.154-167.497 131.657-88.357 88.357-112.347 132.389-131.657 167.497l-5.851 10.679c-5.705 10.386-3.072 23.406 6.437 30.72l71.826 55.881c22.967 17.993 28.233 50.615 12.142 75.045l-128 191.927c-10.094 15.214-26.478 23.991-43.593 24.869zM176.421 766.61c5.705 20.334 19.163 37.595 37.449 48.274l80.311 48.128c11.118 6.729 25.454 3.511 32.622-7.314l127.854-192.073c7.022-10.533 4.681-24.576-5.266-32.475l-71.826-55.881c-21.943-16.677-28.087-46.958-14.629-70.949l5.705-10.386c20.187-37.010 45.349-83.090 137.070-174.811 91.575-91.721 137.655-116.882 174.665-137.070l10.386-5.705c23.991-13.458 54.272-7.168 70.949 14.629l55.881 71.826c7.899 9.947 21.943 12.288 32.475 5.266l191.927-128c10.825-7.168 14.043-21.504 7.314-32.622l-47.982-80.165c-10.679-18.139-27.941-31.598-48.274-37.303-97.134-26.77-267.118-4.681-524.142 252.343-257.024 257.17-279.113 427.008-252.489 524.288z" />
<glyph unicode="&#xe912;" glyph-name="massage" horiz-adv-x="1229" d="M160.7 857.327c-12.356 0-22.323-10.035-22.323-22.323v-580.949c0-12.288 10.035-22.323 22.323-22.323h89.361c12.356 0 22.323-10.035 22.323-22.323v-124.791l140.629 140.561c4.233 4.164 9.899 6.554 15.77 6.554h670.31c12.288 0 22.323 10.035 22.323 22.323v580.949c0 12.288-10.035 22.323-22.323 22.323h-938.394zM250.061 8.294c-2.867 0-5.803 0.546-8.533 1.707-8.329 3.482-13.79 11.605-13.79 20.617v156.399h-67.038c-36.932 0-67.038 30.037-67.038 67.038v580.949c0 36.932 30.106 67.038 67.038 67.038h938.394c37.001 0 67.038-30.106 67.038-67.038v-580.949c0-37.001-30.106-67.038-67.038-67.038h-661.026l-172.169-172.169c-4.301-4.301-10.035-6.554-15.838-6.554zM473.498 499.814c-24.644 0-44.715 20.070-44.715 44.715s20.070 44.715 44.715 44.715c24.644 0 44.646-20.070 44.646-44.715 0.068-24.644-20.002-44.715-44.646-44.715zM831.010 499.814c-24.644 0-44.715 20.070-44.715 44.715s20.002 44.715 44.715 44.715c24.644 0 44.715-20.070 44.715-44.715s-20.070-44.715-44.715-44.715zM652.288 499.814c-24.644 0-44.715 20.070-44.715 44.715s20.070 44.715 44.715 44.715c24.644 0 44.715-20.070 44.715-44.715-0.068-24.644-20.070-44.715-44.715-44.715z" />
<glyph unicode="&#xe913;" glyph-name="edit-user" horiz-adv-x="1088" d="M600.576 30.656h-433.408c-15.040 0-24.064 8.384-28.16 13.376-7.040 8.64-9.728 19.84-7.488 30.848 36.544 175.424 191.296 303.616 369.984 307.904 3.072-0.128 6.208-0.192 9.344-0.192s6.272 0.064 9.408 0.192c54.784-1.28 107.456-13.76 156.736-37.184 17.536-8.32 38.528-0.896 46.912 16.704s0.896 38.528-16.64 46.912c-17.344 8.256-35.008 15.296-52.992 21.248 58.24 43.712 95.936 113.28 95.936 191.488 0 131.968-107.392 239.36-239.36 239.36s-239.296-107.392-239.296-239.36c0-78.336 37.824-147.968 96.128-191.68-53.44-17.6-103.616-44.992-147.52-81.088-80.512-66.176-136.448-158.528-157.568-259.968-6.592-31.808 1.28-64.448 21.76-89.6 20.352-25.024 50.496-39.36 82.752-39.36h433.472c19.456 0 35.2 15.744 35.2 35.2 0 19.392-15.744 35.2-35.2 35.2zM341.888 621.888c0 93.184 75.776 168.96 168.96 168.96s168.96-75.776 168.96-168.96c0-90.304-71.168-164.224-160.384-168.704-2.816 0.064-5.696 0.064-8.576 0.064-2.816 0-5.696 0-8.512-0.064-89.216 4.416-160.448 78.4-160.448 168.704zM735.616 47.168l196.096 196.096 53.568-53.568-196.096-195.648-53.952-0.448 0.384 53.568zM985.28 296.832l53.568-53.568-30.144-30.144-53.568 53.568 30.144 30.144zM702.656 54.336l-0.384-77.44c0-4.352 1.6-8.704 4.8-11.904s7.104-4.8 11.52-4.8l76.992 0.384c4.352 0 8.32 1.6 11.52 4.8l265.92 265.984c6.336 6.336 6.336 16.64 0 23.424l-76.224 76.992c-6.336 6.336-16.64 6.336-23.424 0l-53.184-53.568-212.736-212.352c-2.816-3.2-4.8-7.168-4.8-11.52z" />
<glyph unicode="&#xe914;" glyph-name="download" horiz-adv-x="1170" d="M1015.808 402.505c-15.067 0-27.209 11.995-27.209 27.209v246.93c0 67.145-54.711 121.71-121.563 121.71h-595.675c-67.145 0-121.71-54.711-121.71-121.71v-250.88c0-15.067-11.995-27.209-27.209-27.209-15.067 0-27.209 12.142-27.209 27.209v250.88c0 97.134 78.994 175.982 175.982 175.982h595.675c97.134 0 175.982-78.994 175.982-175.982v-246.93c0.146-14.921-11.995-27.209-27.063-27.209zM415.744 193.463l126.245-126.245v550.619c0 15.067 11.995 27.209 27.209 27.209 15.067 0 27.063-11.995 27.063-27.209v-550.766l126.391 126.391c5.266 5.266 12.288 8.046 19.163 8.046 7.022 0 13.897-2.633 19.017-8.046 10.679-10.679 10.679-27.794 0-38.327l-172.617-172.617c-4.974-4.974-11.995-8.046-19.017-8.046-7.314 0-14.043 2.779-19.163 8.046l-172.617 172.617c-10.679 10.679-10.679 27.794 0 38.327 10.533 10.386 27.941 10.386 38.327 0z" />
<glyph unicode="&#xe915;" glyph-name="search" horiz-adv-x="853" d="M55.296 563.883c0 171.691 139.605 311.125 311.125 311.125 171.691 0 311.125-139.605 311.125-311.125s-139.435-311.296-311.125-311.296c-171.52 0-311.125 139.605-311.125 311.296zM845.995 120.32l-206.336 206.336c55.296 63.659 88.917 146.603 88.917 237.397 0 199.68-162.475 361.984-361.984 361.984-199.68 0-361.984-162.475-361.984-361.984s162.475-361.984 361.984-361.984c90.795 0 173.739 33.451 237.397 88.917l206.165-206.507c4.949-4.949 11.435-7.509 17.92-7.509 6.315 0 12.971 2.389 17.92 7.509 9.728 9.899 9.728 25.941 0 35.84z" />
<glyph unicode="&#xe916;" glyph-name="love" d="M1022.306 640.139c-14.947 164.519-131.395 283.881-277.126 283.881-97.089 0-185.985-52.247-236.006-135.983-49.568 84.82-134.821 136.003-230.354 136.003-145.712 0-262.179-119.362-277.106-283.881-1.182-7.267-6.026-45.512 8.705-107.881 21.23-89.96 70.266-171.786 141.773-236.577l356.747-323.741 362.871 323.721c71.507 64.811 120.544 146.618 141.773 236.597 14.731 62.349 9.886 100.594 8.724 107.861zM975.239 541.298c-19.378-82.161-64.299-157.016-129.78-216.332l-336.285-300.030-330.515 299.951c-65.599 59.435-110.5 134.27-129.898 216.431-13.943 59.021-8.212 92.362-8.192 92.579l0.295 1.989c12.801 144.136 112.863 248.768 237.956 248.768 92.303 0 173.558-56.717 212.118-147.996l18.138-42.991 18.138 42.991c37.949 89.881 123.498 147.977 217.987 147.977 125.073 0 225.155-104.631 238.212-250.638 0.039-0.315 5.77-33.676-8.173-92.697z" />
</font>
</defs>
</svg>
